<svg width="83" height="50" viewBox="0 0 83 50" fill="none" xmlns="http://www.w3.org/2000/svg">
<path d="M25.8827 2.82983H28.8293C28.9304 2.82983 29.0183 2.89896 29.0422 2.99715L32.4994 17.2309C32.5233 17.3291 32.6112 17.3982 32.7122 17.3982H41.9313C42.0675 17.3982 42.1707 17.2752 42.147 17.1411L41.6881 14.5397C41.6696 14.4351 41.5787 14.3587 41.4724 14.3587H35.2829C35.1834 14.3587 35.0964 14.2916 35.0711 14.1954L33.1485 6.87761C33.112 6.73875 33.2167 6.60293 33.3603 6.60293H48.6655C48.809 6.60293 48.9137 6.73846 48.8775 6.87723L47.5969 11.7869C47.572 11.8822 47.6138 11.9823 47.699 12.0317L50.2012 13.4807C50.3265 13.5533 50.4865 13.4864 50.5229 13.3462L52.2737 6.60293C52.5467 5.47108 52.4484 4.81106 51.8567 3.67932C51.8193 3.60782 51.7449 3.56348 51.6643 3.56348H32.4856C32.3903 3.56348 32.3059 3.50181 32.2769 3.41097L31.2385 0.152517C31.2096 0.0616769 31.1252 0 31.0298 0H25.8738C25.8163 0 25.7605 0.0229623 25.7201 0.0638306C24.7485 1.04599 24.772 1.66137 25.7187 2.75516C25.7597 2.80257 25.82 2.82983 25.8827 2.82983Z" fill="#D3412F"/>
<g clip-path="url(#clip0_3203_1878)">
<path d="M44.3641 12.6806C44.265 12.6852 44.1682 12.711 44.0805 12.7563C43.9928 12.8016 43.9163 12.8653 43.8566 12.9427C43.7969 13.0201 43.7554 13.1094 43.735 13.2043C43.7146 13.2992 43.7158 13.3973 43.7385 13.4916L45.3039 22.1134C45.4273 22.6233 46.3278 22.7799 46.6982 22.4012L47.6634 20.8557L49.8728 23.7271C50.5308 24.6023 51.433 24.7374 52.3286 24.0943C53.2242 23.4513 53.3621 22.5693 52.7041 21.6941L50.3119 19.1787L52.2751 18.3403C52.7557 18.1081 52.7359 17.0355 52.2751 16.7681L44.7407 12.772C44.627 12.7062 44.4962 12.6744 44.3641 12.6806Z" fill="#D3412F"/>
</g>
<rect x="33.291" y="18.3408" width="5.14791" height="5.0308" rx="2.5154" fill="#D3412F"/>
<path d="M3.63725 29.321C4.25325 29.293 4.85525 29.279 5.44325 29.279C6.04525 29.279 6.67525 29.342 7.33325 29.468C8.00525 29.594 8.66325 29.832 9.30725 30.182C9.96525 30.518 10.5182 30.959 10.9662 31.505C11.4282 32.037 11.7992 32.744 12.0792 33.626C12.3592 34.508 12.4992 35.579 12.4992 36.839C12.4992 38.099 12.2892 39.233 11.8692 40.241C11.4632 41.235 10.9032 41.998 10.1892 42.53C8.80325 43.566 7.13025 44.084 5.17025 44.084C4.48425 44.084 3.76325 44.056 3.00725 44H1.95725V29.321H3.63725ZM3.70025 43.832C3.99425 43.86 4.36525 43.874 4.81325 43.874C5.26125 43.874 5.59725 43.867 5.82125 43.853C6.04525 43.839 6.35325 43.783 6.74525 43.685C7.13725 43.573 7.50125 43.426 7.83725 43.244C8.17325 43.062 8.52325 42.796 8.88725 42.446C9.26525 42.082 9.58725 41.655 9.85325 41.165C10.4552 40.017 10.7562 38.519 10.7562 36.671C10.7562 35.355 10.5952 34.221 10.2732 33.269C9.95125 32.303 9.58025 31.589 9.16025 31.127C8.75425 30.665 8.25725 30.301 7.66925 30.035C7.08125 29.755 6.61225 29.594 6.26225 29.552C5.91225 29.51 5.50625 29.489 5.04425 29.489C4.58225 29.489 4.13425 29.51 3.70025 29.552V43.832ZM17.1676 44C16.5936 44 16.1526 43.874 15.8446 43.622C15.5506 43.37 15.3966 43.118 15.3826 42.866L15.3616 42.509V33.5H16.8316V42.509C16.8316 42.915 16.9086 43.23 17.0626 43.454C17.2306 43.664 17.3916 43.776 17.5456 43.79L17.7976 43.832H18.4486V44H17.1676ZM15.4876 31.148C15.3196 30.98 15.2356 30.77 15.2356 30.518C15.2356 30.266 15.3196 30.056 15.4876 29.888C15.6556 29.706 15.8656 29.615 16.1176 29.615C16.3696 29.615 16.5796 29.706 16.7476 29.888C16.9296 30.056 17.0206 30.266 17.0206 30.518C17.0206 30.77 16.9296 30.98 16.7476 31.148C16.5796 31.316 16.3696 31.4 16.1176 31.4C15.8656 31.4 15.6556 31.316 15.4876 31.148ZM20.4569 39.128C20.4569 37.308 20.8979 35.901 21.7799 34.907C22.6619 33.913 23.9849 33.416 25.7489 33.416C27.0509 33.416 28.3739 33.647 29.7179 34.109V44.252C29.7039 47.584 28.2479 49.25 25.3499 49.25C23.7539 49.25 22.3889 48.732 21.2549 47.696L21.4019 47.57C22.6059 48.578 23.9219 49.082 25.3499 49.082C27.2819 49.082 28.2479 47.472 28.2479 44.252V42.173C27.9819 42.663 27.5409 43.097 26.9249 43.475C26.3089 43.853 25.5809 44.042 24.7409 44.042C21.8849 43.972 20.4569 42.334 20.4569 39.128ZM24.7619 43.874C25.6999 43.874 26.5049 43.622 27.1769 43.118C27.8489 42.614 28.2059 42.117 28.2479 41.627V34.214C27.2399 33.794 26.3859 33.584 25.6859 33.584C24.4399 33.584 23.5019 34.074 22.8719 35.054C22.2419 36.02 21.9269 37.378 21.9269 39.128C21.9269 42.292 22.8719 43.874 24.7619 43.874ZM35.3154 44C34.7414 44 34.3004 43.874 33.9924 43.622C33.6984 43.37 33.5444 43.118 33.5304 42.866L33.5094 42.509V33.5H34.9794V42.509C34.9794 42.915 35.0564 43.23 35.2104 43.454C35.3784 43.664 35.5394 43.776 35.6934 43.79L35.9454 43.832H36.5964V44H35.3154ZM33.6354 31.148C33.4674 30.98 33.3834 30.77 33.3834 30.518C33.3834 30.266 33.4674 30.056 33.6354 29.888C33.8034 29.706 34.0134 29.615 34.2654 29.615C34.5174 29.615 34.7274 29.706 34.8954 29.888C35.0774 30.056 35.1684 30.266 35.1684 30.518C35.1684 30.77 35.0774 30.98 34.8954 31.148C34.7274 31.316 34.5174 31.4 34.2654 31.4C34.0134 31.4 33.8034 31.316 33.6354 31.148Z" fill="#1E243A"/>
<path d="M39.9179 44H39.6449L41.4719 29.3H42.1649L46.5749 42.887L50.9639 29.3H51.6569L53.4839 44H51.7409L50.2919 32.24L46.4909 44H45.1679L41.3249 32.387L39.9179 44ZM65.3057 44C64.3537 44 63.7027 43.818 63.3527 43.454C63.0307 43.146 62.8697 42.88 62.8697 42.656V42.215C62.1837 43.461 61.0847 44.084 59.5727 44.084C57.8087 44.084 56.8077 43.286 56.5697 41.69C56.5417 41.522 56.5277 41.354 56.5277 41.186C56.5277 41.004 56.5557 40.808 56.6117 40.598C56.6677 40.388 56.8287 40.157 57.0947 39.905C57.6267 39.401 58.7957 39.093 60.6017 38.981C61.0497 38.939 61.4627 38.918 61.8407 38.918C62.2187 38.918 62.5617 38.932 62.8697 38.96V35.474C62.8417 35.46 62.8417 35.397 62.8697 35.285C62.8977 35.159 62.8697 35.005 62.7857 34.823C62.7157 34.627 62.6177 34.438 62.4917 34.256C62.3657 34.074 62.1417 33.92 61.8197 33.794C61.4977 33.654 61.0777 33.584 60.5597 33.584C60.0417 33.584 59.4327 33.682 58.7327 33.878C58.0467 34.06 57.5427 34.242 57.2207 34.424L57.1367 34.277C58.3827 33.703 59.6497 33.416 60.9377 33.416C62.3797 33.416 63.3317 33.675 63.7937 34.193C64.1577 34.599 64.3397 35.026 64.3397 35.474V42.509C64.3397 42.915 64.4167 43.23 64.5707 43.454C64.7387 43.664 64.9067 43.776 65.0747 43.79L65.3057 43.832H65.9567V44H65.3057ZM59.9087 43.916C60.6507 43.916 61.3157 43.664 61.9037 43.16C62.5057 42.642 62.8277 42.145 62.8697 41.669V39.128C62.4917 39.1 62.1067 39.086 61.7147 39.086C61.3367 39.086 60.9587 39.107 60.5807 39.149C59.5167 39.275 58.8237 39.513 58.5017 39.863C58.1797 40.213 58.0187 40.696 58.0187 41.312C58.0187 41.424 58.0257 41.55 58.0397 41.69C58.1657 43.174 58.7887 43.916 59.9087 43.916ZM71.9632 34.403V33.962C71.3332 34.214 70.7592 34.725 70.2412 35.495C69.7232 36.251 69.4502 36.965 69.4222 37.637V44H67.9522V33.5H69.4222V36.839C69.6462 36.027 70.0732 35.264 70.7032 34.55C71.3332 33.822 72.0472 33.444 72.8452 33.416H72.9292C73.2092 33.416 73.4402 33.514 73.6222 33.71C73.8182 33.892 73.9162 34.123 73.9162 34.403C73.9162 34.683 73.8182 34.914 73.6222 35.096C73.4402 35.278 73.2092 35.369 72.9292 35.369C72.6492 35.369 72.4182 35.278 72.2362 35.096C72.0542 34.914 71.9632 34.683 71.9632 34.403ZM76.2341 33.668V33.5H76.6751V31.4H78.1451V33.5H81.3581V33.668H78.1451V41.312C78.1451 42.222 78.2431 42.88 78.4391 43.286C78.6491 43.692 79.0761 43.895 79.7201 43.895C80.3781 43.895 81.0431 43.762 81.7151 43.496L81.7781 43.664C81.0781 43.93 80.2731 44.063 79.3631 44.063C78.4671 44.063 77.7951 43.881 77.3471 43.517C76.8991 43.139 76.6751 42.397 76.6751 41.291V33.668H76.2341Z" fill="#D3412F"/>
<defs>
<clipPath id="clip0_3203_1878">
<rect width="13.5096" height="13.2096" fill="white" transform="matrix(0.994219 -0.107367 0.112362 0.993667 42.0859 12.874)"/>
</clipPath>
</defs>
</svg>
